<mxfile host="65bd71144e">
    <diagram id="YTlXRow3XSHLqkoWK3y-" name="Page-1">
        <mxGraphModel dx="1340" dy="1864" grid="1" gridSize="10" guides="1" tooltips="1" connect="1" arrows="1" fold="1" page="1" pageScale="1" pageWidth="850" pageHeight="1100" math="0" shadow="0">
            <root>
                <mxCell id="0"/>
                <mxCell id="1" parent="0"/>
                <mxCell id="15" value="&lt;&lt;ENUM&gt;&gt;&#10;CategorieBiens" style="swimlane;fontStyle=0;childLayout=stackLayout;horizontal=1;startSize=40;fillColor=none;horizontalStack=0;resizeParent=1;resizeParentMax=0;resizeLast=0;collapsible=1;marginBottom=0;" vertex="1" parent="1">
                    <mxGeometry x="860" y="-160" width="190" height="310" as="geometry"/>
                </mxCell>
                <mxCell id="17" value="Aliments et Eau ,&#10;médicaments de base,&#10;Savons, &#10;shampooings, &#10;articles d'hygiène personnelle,&#10;Couches pour bébés ,&#10;produits d'hygiène féminine,&#10;Couvertures,&#10;matelas et articles de literie,&#10;Fournitures Scolaires,&#10;Vêtements ,&#10;Chaussures, &#10;Lampes solaires, &#10;Batteries et chargeurs solaires ,&#10;l'huile,&#10;Sucre,&#10;Farine,&#10;Blé" style="text;strokeColor=none;fillColor=none;align=left;verticalAlign=top;spacingLeft=4;spacingRight=4;overflow=hidden;rotatable=0;points=[[0,0.5],[1,0.5]];portConstraint=eastwest;" vertex="1" parent="15">
                    <mxGeometry y="40" width="190" height="270" as="geometry"/>
                </mxCell>
                <mxCell id="19" value="" style="endArrow=open;endFill=1;endSize=12;html=1;exitX=1;exitY=0;exitDx=0;exitDy=0;entryX=0.423;entryY=1.001;entryDx=0;entryDy=0;entryPerimeter=0;" edge="1" parent="1" source="87" target="17">
                    <mxGeometry width="160" relative="1" as="geometry">
                        <mxPoint x="540" y="226" as="sourcePoint"/>
                        <mxPoint x="500" y="60" as="targetPoint"/>
                    </mxGeometry>
                </mxCell>
                <mxCell id="20" value="&lt;&lt;Interface&gt;&gt;&#10;IAssociation" style="swimlane;fontStyle=0;childLayout=stackLayout;horizontal=1;startSize=40;fillColor=none;horizontalStack=0;resizeParent=1;resizeParentMax=0;resizeLast=0;collapsible=1;marginBottom=0;" vertex="1" parent="1">
                    <mxGeometry y="-90" width="380" height="170" as="geometry"/>
                </mxCell>
                <mxCell id="21" value="+AjouterAssociation (Association association) : Association" style="text;strokeColor=none;fillColor=none;align=left;verticalAlign=top;spacingLeft=4;spacingRight=4;overflow=hidden;rotatable=0;points=[[0,0.5],[1,0.5]];portConstraint=eastwest;" vertex="1" parent="20">
                    <mxGeometry y="40" width="380" height="26" as="geometry"/>
                </mxCell>
                <mxCell id="22" value="+UpdateAssociation (Long id , Association association) : Association" style="text;strokeColor=none;fillColor=none;align=left;verticalAlign=top;spacingLeft=4;spacingRight=4;overflow=hidden;rotatable=0;points=[[0,0.5],[1,0.5]];portConstraint=eastwest;" vertex="1" parent="20">
                    <mxGeometry y="66" width="380" height="26" as="geometry"/>
                </mxCell>
                <mxCell id="23" value="+getAssociationById (Long id) : Association" style="text;strokeColor=none;fillColor=none;align=left;verticalAlign=top;spacingLeft=4;spacingRight=4;overflow=hidden;rotatable=0;points=[[0,0.5],[1,0.5]];portConstraint=eastwest;" vertex="1" parent="20">
                    <mxGeometry y="92" width="380" height="26" as="geometry"/>
                </mxCell>
                <mxCell id="24" value="+getListAssociation () : List&lt;Association&gt;" style="text;strokeColor=none;fillColor=none;align=left;verticalAlign=top;spacingLeft=4;spacingRight=4;overflow=hidden;rotatable=0;points=[[0,0.5],[1,0.5]];portConstraint=eastwest;" vertex="1" parent="20">
                    <mxGeometry y="118" width="380" height="26" as="geometry"/>
                </mxCell>
                <mxCell id="25" value="+deleteAssociation (Long id) : void" style="text;strokeColor=none;fillColor=none;align=left;verticalAlign=top;spacingLeft=4;spacingRight=4;overflow=hidden;rotatable=0;points=[[0,0.5],[1,0.5]];portConstraint=eastwest;" vertex="1" parent="20">
                    <mxGeometry y="144" width="380" height="26" as="geometry"/>
                </mxCell>
                <mxCell id="26" value="" style="endArrow=block;dashed=1;endFill=0;endSize=12;html=1;entryX=0.48;entryY=1.062;entryDx=0;entryDy=0;entryPerimeter=0;exitX=0.5;exitY=0;exitDx=0;exitDy=0;" edge="1" parent="1" source="31" target="25">
                    <mxGeometry width="160" relative="1" as="geometry">
                        <mxPoint x="115" y="190" as="sourcePoint"/>
                        <mxPoint x="500" y="140" as="targetPoint"/>
                    </mxGeometry>
                </mxCell>
                <mxCell id="31" value="Association" style="swimlane;fontStyle=1;align=center;verticalAlign=top;childLayout=stackLayout;horizontal=1;startSize=26;horizontalStack=0;resizeParent=1;resizeParentMax=0;resizeLast=0;collapsible=1;marginBottom=0;" vertex="1" parent="1">
                    <mxGeometry x="30" y="180" width="230" height="268" as="geometry"/>
                </mxCell>
                <mxCell id="39" value="-IdAssociation : Long" style="text;strokeColor=none;fillColor=none;align=left;verticalAlign=top;spacingLeft=4;spacingRight=4;overflow=hidden;rotatable=0;points=[[0,0.5],[1,0.5]];portConstraint=eastwest;" vertex="1" parent="31">
                    <mxGeometry y="26" width="230" height="26" as="geometry"/>
                </mxCell>
                <mxCell id="42" value="-NomPrésidentAssociation : String" style="text;strokeColor=none;fillColor=none;align=left;verticalAlign=top;spacingLeft=4;spacingRight=4;overflow=hidden;rotatable=0;points=[[0,0.5],[1,0.5]];portConstraint=eastwest;" vertex="1" parent="31">
                    <mxGeometry y="52" width="230" height="26" as="geometry"/>
                </mxCell>
                <mxCell id="41" value="-NbrSerie : String" style="text;strokeColor=none;fillColor=none;align=left;verticalAlign=top;spacingLeft=4;spacingRight=4;overflow=hidden;rotatable=0;points=[[0,0.5],[1,0.5]];portConstraint=eastwest;" vertex="1" parent="31">
                    <mxGeometry y="78" width="230" height="26" as="geometry"/>
                </mxCell>
                <mxCell id="40" value="-NomAssociation :String" style="text;strokeColor=none;fillColor=none;align=left;verticalAlign=top;spacingLeft=4;spacingRight=4;overflow=hidden;rotatable=0;points=[[0,0.5],[1,0.5]];portConstraint=eastwest;" vertex="1" parent="31">
                    <mxGeometry y="104" width="230" height="26" as="geometry"/>
                </mxCell>
                <mxCell id="33" value="" style="line;strokeWidth=1;fillColor=none;align=left;verticalAlign=middle;spacingTop=-1;spacingLeft=3;spacingRight=3;rotatable=0;labelPosition=right;points=[];portConstraint=eastwest;strokeColor=inherit;" vertex="1" parent="31">
                    <mxGeometry y="130" width="230" height="8" as="geometry"/>
                </mxCell>
                <mxCell id="43" value="+AjouterAssociation () : Association" style="text;strokeColor=none;fillColor=none;align=left;verticalAlign=top;spacingLeft=4;spacingRight=4;overflow=hidden;rotatable=0;points=[[0,0.5],[1,0.5]];portConstraint=eastwest;" vertex="1" parent="31">
                    <mxGeometry y="138" width="230" height="26" as="geometry"/>
                </mxCell>
                <mxCell id="44" value="+UpdateAssociation () : Association" style="text;strokeColor=none;fillColor=none;align=left;verticalAlign=top;spacingLeft=4;spacingRight=4;overflow=hidden;rotatable=0;points=[[0,0.5],[1,0.5]];portConstraint=eastwest;" vertex="1" parent="31">
                    <mxGeometry y="164" width="230" height="26" as="geometry"/>
                </mxCell>
                <mxCell id="45" value="+getAssociationById () : Association" style="text;strokeColor=none;fillColor=none;align=left;verticalAlign=top;spacingLeft=4;spacingRight=4;overflow=hidden;rotatable=0;points=[[0,0.5],[1,0.5]];portConstraint=eastwest;" vertex="1" parent="31">
                    <mxGeometry y="190" width="230" height="26" as="geometry"/>
                </mxCell>
                <mxCell id="47" value="+deleteAssociation () : void" style="text;strokeColor=none;fillColor=none;align=left;verticalAlign=top;spacingLeft=4;spacingRight=4;overflow=hidden;rotatable=0;points=[[0,0.5],[1,0.5]];portConstraint=eastwest;" vertex="1" parent="31">
                    <mxGeometry y="216" width="230" height="26" as="geometry"/>
                </mxCell>
                <mxCell id="46" value="+getListAssociation () : List&lt;Association&gt;" style="text;strokeColor=none;fillColor=none;align=left;verticalAlign=top;spacingLeft=4;spacingRight=4;overflow=hidden;rotatable=0;points=[[0,0.5],[1,0.5]];portConstraint=eastwest;" vertex="1" parent="31">
                    <mxGeometry y="242" width="230" height="26" as="geometry"/>
                </mxCell>
                <mxCell id="48" value="" style="endArrow=block;endFill=1;html=1;edgeStyle=orthogonalEdgeStyle;align=left;verticalAlign=top;exitX=0.998;exitY=0.15;exitDx=0;exitDy=0;entryX=0;entryY=0.5;entryDx=0;entryDy=0;exitPerimeter=0;" edge="1" parent="1" source="33" target="100">
                    <mxGeometry x="-1" relative="1" as="geometry">
                        <mxPoint x="340" y="300" as="sourcePoint"/>
                        <mxPoint x="380" y="239" as="targetPoint"/>
                    </mxGeometry>
                </mxCell>
                <mxCell id="49" value="1" style="edgeLabel;resizable=0;html=1;align=left;verticalAlign=bottom;" connectable="0" vertex="1" parent="48">
                    <mxGeometry x="-1" relative="1" as="geometry">
                        <mxPoint x="2" as="offset"/>
                    </mxGeometry>
                </mxCell>
                <mxCell id="50" value="1,*" style="edgeLabel;html=1;align=center;verticalAlign=middle;resizable=0;points=[];" vertex="1" connectable="0" parent="48">
                    <mxGeometry x="0.8067" y="1" relative="1" as="geometry">
                        <mxPoint x="-1" y="-1" as="offset"/>
                    </mxGeometry>
                </mxCell>
                <mxCell id="51" value="&lt;&lt;Interface&gt;&gt;&#10;IBiensEssantiels" style="swimlane;fontStyle=0;childLayout=stackLayout;horizontal=1;startSize=40;fillColor=none;horizontalStack=0;resizeParent=1;resizeParentMax=0;resizeLast=0;collapsible=1;marginBottom=0;" vertex="1" parent="1">
                    <mxGeometry x="410" y="-120" width="410" height="170" as="geometry"/>
                </mxCell>
                <mxCell id="52" value="+AjouterBiensEssantiels (BiensEss biensEss) : BiensEssantiels" style="text;strokeColor=none;fillColor=none;align=left;verticalAlign=top;spacingLeft=4;spacingRight=4;overflow=hidden;rotatable=0;points=[[0,0.5],[1,0.5]];portConstraint=eastwest;" vertex="1" parent="51">
                    <mxGeometry y="40" width="410" height="26" as="geometry"/>
                </mxCell>
                <mxCell id="53" value="+UpdateBiensEssantiels (Long id , BiensEss biensEss) : BiensEssantiels" style="text;strokeColor=none;fillColor=none;align=left;verticalAlign=top;spacingLeft=4;spacingRight=4;overflow=hidden;rotatable=0;points=[[0,0.5],[1,0.5]];portConstraint=eastwest;" vertex="1" parent="51">
                    <mxGeometry y="66" width="410" height="26" as="geometry"/>
                </mxCell>
                <mxCell id="54" value="+getBiensEssantielsById (Long id) : BiensEssantiels" style="text;strokeColor=none;fillColor=none;align=left;verticalAlign=top;spacingLeft=4;spacingRight=4;overflow=hidden;rotatable=0;points=[[0,0.5],[1,0.5]];portConstraint=eastwest;" vertex="1" parent="51">
                    <mxGeometry y="92" width="410" height="26" as="geometry"/>
                </mxCell>
                <mxCell id="55" value="+getListBiensEssantiels () : List&lt;BiensEssantiels&gt;" style="text;strokeColor=none;fillColor=none;align=left;verticalAlign=top;spacingLeft=4;spacingRight=4;overflow=hidden;rotatable=0;points=[[0,0.5],[1,0.5]];portConstraint=eastwest;" vertex="1" parent="51">
                    <mxGeometry y="118" width="410" height="26" as="geometry"/>
                </mxCell>
                <mxCell id="56" value="+deleteBiensEssantiels (Long id) : void" style="text;strokeColor=none;fillColor=none;align=left;verticalAlign=top;spacingLeft=4;spacingRight=4;overflow=hidden;rotatable=0;points=[[0,0.5],[1,0.5]];portConstraint=eastwest;" vertex="1" parent="51">
                    <mxGeometry y="144" width="410" height="26" as="geometry"/>
                </mxCell>
                <mxCell id="59" value="" style="endArrow=block;dashed=1;endFill=0;endSize=12;html=1;entryX=0.41;entryY=1.138;entryDx=0;entryDy=0;entryPerimeter=0;exitX=0.5;exitY=0;exitDx=0;exitDy=0;" edge="1" parent="1" source="87" target="56">
                    <mxGeometry width="160" relative="1" as="geometry">
                        <mxPoint x="490.9517569501845" y="200" as="sourcePoint"/>
                        <mxPoint x="657.4000000000001" y="264.8020000000001" as="targetPoint"/>
                    </mxGeometry>
                </mxCell>
                <mxCell id="64" value="" style="endArrow=block;endFill=1;html=1;edgeStyle=orthogonalEdgeStyle;align=left;verticalAlign=top;exitX=1;exitY=0.5;exitDx=0;exitDy=0;entryX=0.25;entryY=0;entryDx=0;entryDy=0;" edge="1" parent="1" source="45" target="109">
                    <mxGeometry x="-1" relative="1" as="geometry">
                        <mxPoint x="269.53999999999996" y="321.20000000000005" as="sourcePoint"/>
                        <mxPoint x="440" y="578.5" as="targetPoint"/>
                    </mxGeometry>
                </mxCell>
                <mxCell id="65" value="1" style="edgeLabel;resizable=0;html=1;align=left;verticalAlign=bottom;" connectable="0" vertex="1" parent="64">
                    <mxGeometry x="-1" relative="1" as="geometry">
                        <mxPoint x="2" as="offset"/>
                    </mxGeometry>
                </mxCell>
                <mxCell id="66" value="1,*" style="edgeLabel;html=1;align=center;verticalAlign=middle;resizable=0;points=[];" vertex="1" connectable="0" parent="64">
                    <mxGeometry x="0.8067" y="1" relative="1" as="geometry">
                        <mxPoint x="-1" y="-1" as="offset"/>
                    </mxGeometry>
                </mxCell>
                <mxCell id="72" value="&lt;&lt;ENUM&gt;&gt;&#10;RoleMembre" style="swimlane;fontStyle=0;childLayout=stackLayout;horizontal=1;startSize=40;fillColor=none;horizontalStack=0;resizeParent=1;resizeParentMax=0;resizeLast=0;collapsible=1;marginBottom=0;" vertex="1" parent="1">
                    <mxGeometry x="900" y="390" width="310" height="220" as="geometry"/>
                </mxCell>
                <mxCell id="73" value="Responsable des Collectes de Fonds,&#10;Coordinateur/Coordonnatrice des Bénévoles,&#10;Responsable des Relations Publiques/Communication,&#10;Responsable des Projets Humanitaires,&#10;Trésorier,&#10;Trésorière,&#10;Responsable des Partenariats,&#10;Responsable des Initiatives de Sensibilisation,&#10;Conseiller Juridique,&#10;Membre Actif,&#10;Membre du Conseil," style="text;strokeColor=none;fillColor=none;align=left;verticalAlign=top;spacingLeft=4;spacingRight=4;overflow=hidden;rotatable=0;points=[[0,0.5],[1,0.5]];portConstraint=eastwest;" vertex="1" parent="72">
                    <mxGeometry y="40" width="310" height="180" as="geometry"/>
                </mxCell>
                <mxCell id="74" value="" style="endArrow=open;endFill=1;endSize=12;html=1;exitX=1;exitY=0.5;exitDx=0;exitDy=0;entryX=-0.004;entryY=0.349;entryDx=0;entryDy=0;entryPerimeter=0;" edge="1" parent="1" source="126" target="73">
                    <mxGeometry width="160" relative="1" as="geometry">
                        <mxPoint x="600" y="637" as="sourcePoint"/>
                        <mxPoint x="670.3699999999999" y="280" as="targetPoint"/>
                    </mxGeometry>
                </mxCell>
                <mxCell id="75" value="&lt;&lt;Interface&gt;&gt;&#10;IMembers" style="swimlane;fontStyle=0;childLayout=stackLayout;horizontal=1;startSize=40;fillColor=none;horizontalStack=0;resizeParent=1;resizeParentMax=0;resizeLast=0;collapsible=1;marginBottom=0;" vertex="1" parent="1">
                    <mxGeometry x="800" y="640" width="410" height="170" as="geometry"/>
                </mxCell>
                <mxCell id="76" value="+AjouterMembers (Members members) : Members" style="text;strokeColor=none;fillColor=none;align=left;verticalAlign=top;spacingLeft=4;spacingRight=4;overflow=hidden;rotatable=0;points=[[0,0.5],[1,0.5]];portConstraint=eastwest;" vertex="1" parent="75">
                    <mxGeometry y="40" width="410" height="26" as="geometry"/>
                </mxCell>
                <mxCell id="77" value="+UpdateMembers (Long id , Members members) : Members" style="text;strokeColor=none;fillColor=none;align=left;verticalAlign=top;spacingLeft=4;spacingRight=4;overflow=hidden;rotatable=0;points=[[0,0.5],[1,0.5]];portConstraint=eastwest;" vertex="1" parent="75">
                    <mxGeometry y="66" width="410" height="26" as="geometry"/>
                </mxCell>
                <mxCell id="78" value="+getMembersById (Long id) : Members" style="text;strokeColor=none;fillColor=none;align=left;verticalAlign=top;spacingLeft=4;spacingRight=4;overflow=hidden;rotatable=0;points=[[0,0.5],[1,0.5]];portConstraint=eastwest;" vertex="1" parent="75">
                    <mxGeometry y="92" width="410" height="26" as="geometry"/>
                </mxCell>
                <mxCell id="79" value="+getListMembers () : List&lt;Members&gt;" style="text;strokeColor=none;fillColor=none;align=left;verticalAlign=top;spacingLeft=4;spacingRight=4;overflow=hidden;rotatable=0;points=[[0,0.5],[1,0.5]];portConstraint=eastwest;" vertex="1" parent="75">
                    <mxGeometry y="118" width="410" height="26" as="geometry"/>
                </mxCell>
                <mxCell id="80" value="+deleteMembers (Long id) : void" style="text;strokeColor=none;fillColor=none;align=left;verticalAlign=top;spacingLeft=4;spacingRight=4;overflow=hidden;rotatable=0;points=[[0,0.5],[1,0.5]];portConstraint=eastwest;" vertex="1" parent="75">
                    <mxGeometry y="144" width="410" height="26" as="geometry"/>
                </mxCell>
                <mxCell id="81" value="" style="endArrow=block;dashed=1;endFill=0;endSize=12;html=1;entryX=0;entryY=0.25;entryDx=0;entryDy=0;exitX=1.006;exitY=0.029;exitDx=0;exitDy=0;exitPerimeter=0;" edge="1" parent="1" source="123" target="75">
                    <mxGeometry width="160" relative="1" as="geometry">
                        <mxPoint x="600" y="663" as="sourcePoint"/>
                        <mxPoint x="667.1499999999999" y="469.998" as="targetPoint"/>
                    </mxGeometry>
                </mxCell>
                <mxCell id="87" value="BiensEssantiels" style="swimlane;fontStyle=1;align=center;verticalAlign=top;childLayout=stackLayout;horizontal=1;startSize=26;horizontalStack=0;resizeParent=1;resizeParentMax=0;resizeLast=0;collapsible=1;marginBottom=0;" vertex="1" parent="1">
                    <mxGeometry x="440" y="193" width="400" height="242" as="geometry"/>
                </mxCell>
                <mxCell id="98" value="-IdBiens : Long" style="text;strokeColor=none;fillColor=none;align=left;verticalAlign=top;spacingLeft=4;spacingRight=4;overflow=hidden;rotatable=0;points=[[0,0.5],[1,0.5]];portConstraint=eastwest;" vertex="1" parent="87">
                    <mxGeometry y="26" width="400" height="26" as="geometry"/>
                </mxCell>
                <mxCell id="99" value="-NomBiens :CategorieEnum" style="text;strokeColor=none;fillColor=none;align=left;verticalAlign=top;spacingLeft=4;spacingRight=4;overflow=hidden;rotatable=0;points=[[0,0.5],[1,0.5]];portConstraint=eastwest;" vertex="1" parent="87">
                    <mxGeometry y="52" width="400" height="26" as="geometry"/>
                </mxCell>
                <mxCell id="100" value="-Quantie: double" style="text;strokeColor=none;fillColor=none;align=left;verticalAlign=top;spacingLeft=4;spacingRight=4;overflow=hidden;rotatable=0;points=[[0,0.5],[1,0.5]];portConstraint=eastwest;" vertex="1" parent="87">
                    <mxGeometry y="78" width="400" height="26" as="geometry"/>
                </mxCell>
                <mxCell id="92" value="" style="line;strokeWidth=1;fillColor=none;align=left;verticalAlign=middle;spacingTop=-1;spacingLeft=3;spacingRight=3;rotatable=0;labelPosition=right;points=[];portConstraint=eastwest;strokeColor=inherit;" vertex="1" parent="87">
                    <mxGeometry y="104" width="400" height="8" as="geometry"/>
                </mxCell>
                <mxCell id="101" value="+AjouterBiensEssantiels (BiensEss biensEss) : BiensEssantiels" style="text;strokeColor=none;fillColor=none;align=left;verticalAlign=top;spacingLeft=4;spacingRight=4;overflow=hidden;rotatable=0;points=[[0,0.5],[1,0.5]];portConstraint=eastwest;" vertex="1" parent="87">
                    <mxGeometry y="112" width="400" height="26" as="geometry"/>
                </mxCell>
                <mxCell id="102" value="+UpdateBiensEssantiels (Long id , BiensEss biensEss) : BiensEssantiels" style="text;strokeColor=none;fillColor=none;align=left;verticalAlign=top;spacingLeft=4;spacingRight=4;overflow=hidden;rotatable=0;points=[[0,0.5],[1,0.5]];portConstraint=eastwest;" vertex="1" parent="87">
                    <mxGeometry y="138" width="400" height="26" as="geometry"/>
                </mxCell>
                <mxCell id="103" value="+getBiensEssantielsById (Long id) : BiensEssantiels" style="text;strokeColor=none;fillColor=none;align=left;verticalAlign=top;spacingLeft=4;spacingRight=4;overflow=hidden;rotatable=0;points=[[0,0.5],[1,0.5]];portConstraint=eastwest;" vertex="1" parent="87">
                    <mxGeometry y="164" width="400" height="26" as="geometry"/>
                </mxCell>
                <mxCell id="104" value="+getListBiensEssantiels () : List&lt;BiensEssantiels&gt;" style="text;strokeColor=none;fillColor=none;align=left;verticalAlign=top;spacingLeft=4;spacingRight=4;overflow=hidden;rotatable=0;points=[[0,0.5],[1,0.5]];portConstraint=eastwest;" vertex="1" parent="87">
                    <mxGeometry y="190" width="400" height="26" as="geometry"/>
                </mxCell>
                <mxCell id="105" value="+deleteBiensEssantiels (Long id) : void" style="text;strokeColor=none;fillColor=none;align=left;verticalAlign=top;spacingLeft=4;spacingRight=4;overflow=hidden;rotatable=0;points=[[0,0.5],[1,0.5]];portConstraint=eastwest;" vertex="1" parent="87">
                    <mxGeometry y="216" width="400" height="26" as="geometry"/>
                </mxCell>
                <mxCell id="109" value="Members" style="swimlane;fontStyle=1;align=center;verticalAlign=top;childLayout=stackLayout;horizontal=1;startSize=26;horizontalStack=0;resizeParent=1;resizeParentMax=0;resizeLast=0;collapsible=1;marginBottom=0;" vertex="1" parent="1">
                    <mxGeometry x="300" y="480" width="400" height="372" as="geometry"/>
                </mxCell>
                <mxCell id="119" value="-IdMembers : Long" style="text;strokeColor=none;fillColor=none;align=left;verticalAlign=top;spacingLeft=4;spacingRight=4;overflow=hidden;rotatable=0;points=[[0,0.5],[1,0.5]];portConstraint=eastwest;" vertex="1" parent="109">
                    <mxGeometry y="26" width="400" height="26" as="geometry"/>
                </mxCell>
                <mxCell id="120" value="-NomComplete : String" style="text;strokeColor=none;fillColor=none;align=left;verticalAlign=top;spacingLeft=4;spacingRight=4;overflow=hidden;rotatable=0;points=[[0,0.5],[1,0.5]];portConstraint=eastwest;" vertex="1" parent="109">
                    <mxGeometry y="52" width="400" height="26" as="geometry"/>
                </mxCell>
                <mxCell id="126" value="-Role : RoleEnum" style="text;strokeColor=none;fillColor=none;align=left;verticalAlign=top;spacingLeft=4;spacingRight=4;overflow=hidden;rotatable=0;points=[[0,0.5],[1,0.5]];portConstraint=eastwest;" vertex="1" parent="109">
                    <mxGeometry y="78" width="400" height="26" as="geometry"/>
                </mxCell>
                <mxCell id="125" value="-dateNaissance : Date" style="text;strokeColor=none;fillColor=none;align=left;verticalAlign=top;spacingLeft=4;spacingRight=4;overflow=hidden;rotatable=0;points=[[0,0.5],[1,0.5]];portConstraint=eastwest;" vertex="1" parent="109">
                    <mxGeometry y="104" width="400" height="26" as="geometry"/>
                </mxCell>
                <mxCell id="124" value="-adress : String" style="text;strokeColor=none;fillColor=none;align=left;verticalAlign=top;spacingLeft=4;spacingRight=4;overflow=hidden;rotatable=0;points=[[0,0.5],[1,0.5]];portConstraint=eastwest;" vertex="1" parent="109">
                    <mxGeometry y="130" width="400" height="26" as="geometry"/>
                </mxCell>
                <mxCell id="123" value="-genre : GenreEnum" style="text;strokeColor=none;fillColor=none;align=left;verticalAlign=top;spacingLeft=4;spacingRight=4;overflow=hidden;rotatable=0;points=[[0,0.5],[1,0.5]];portConstraint=eastwest;" vertex="1" parent="109">
                    <mxGeometry y="156" width="400" height="26" as="geometry"/>
                </mxCell>
                <mxCell id="122" value="-email : String" style="text;strokeColor=none;fillColor=none;align=left;verticalAlign=top;spacingLeft=4;spacingRight=4;overflow=hidden;rotatable=0;points=[[0,0.5],[1,0.5]];portConstraint=eastwest;" vertex="1" parent="109">
                    <mxGeometry y="182" width="400" height="26" as="geometry"/>
                </mxCell>
                <mxCell id="121" value="-Tele: double" style="text;strokeColor=none;fillColor=none;align=left;verticalAlign=top;spacingLeft=4;spacingRight=4;overflow=hidden;rotatable=0;points=[[0,0.5],[1,0.5]];portConstraint=eastwest;" vertex="1" parent="109">
                    <mxGeometry y="208" width="400" height="26" as="geometry"/>
                </mxCell>
                <mxCell id="113" value="" style="line;strokeWidth=1;fillColor=none;align=left;verticalAlign=middle;spacingTop=-1;spacingLeft=3;spacingRight=3;rotatable=0;labelPosition=right;points=[];portConstraint=eastwest;strokeColor=inherit;" vertex="1" parent="109">
                    <mxGeometry y="234" width="400" height="8" as="geometry"/>
                </mxCell>
                <mxCell id="132" value="+AjouterMembers (Members members) : Members" style="text;strokeColor=none;fillColor=none;align=left;verticalAlign=top;spacingLeft=4;spacingRight=4;overflow=hidden;rotatable=0;points=[[0,0.5],[1,0.5]];portConstraint=eastwest;" vertex="1" parent="109">
                    <mxGeometry y="242" width="400" height="26" as="geometry"/>
                </mxCell>
                <mxCell id="133" value="+UpdateMembers (Long id , Members members) : Members" style="text;strokeColor=none;fillColor=none;align=left;verticalAlign=top;spacingLeft=4;spacingRight=4;overflow=hidden;rotatable=0;points=[[0,0.5],[1,0.5]];portConstraint=eastwest;" vertex="1" parent="109">
                    <mxGeometry y="268" width="400" height="26" as="geometry"/>
                </mxCell>
                <mxCell id="134" value="+getMembersById (Long id) : Members" style="text;strokeColor=none;fillColor=none;align=left;verticalAlign=top;spacingLeft=4;spacingRight=4;overflow=hidden;rotatable=0;points=[[0,0.5],[1,0.5]];portConstraint=eastwest;" vertex="1" parent="109">
                    <mxGeometry y="294" width="400" height="26" as="geometry"/>
                </mxCell>
                <mxCell id="136" value="+deleteMembers (Long id) : void" style="text;strokeColor=none;fillColor=none;align=left;verticalAlign=top;spacingLeft=4;spacingRight=4;overflow=hidden;rotatable=0;points=[[0,0.5],[1,0.5]];portConstraint=eastwest;" vertex="1" parent="109">
                    <mxGeometry y="320" width="400" height="26" as="geometry"/>
                </mxCell>
                <mxCell id="135" value="+getListMembers () : List&lt;Members&gt;" style="text;strokeColor=none;fillColor=none;align=left;verticalAlign=top;spacingLeft=4;spacingRight=4;overflow=hidden;rotatable=0;points=[[0,0.5],[1,0.5]];portConstraint=eastwest;" vertex="1" parent="109">
                    <mxGeometry y="346" width="400" height="26" as="geometry"/>
                </mxCell>
                <mxCell id="138" value="RegionVille" style="swimlane;fontStyle=1;align=center;verticalAlign=top;childLayout=stackLayout;horizontal=1;startSize=26;horizontalStack=0;resizeParent=1;resizeParentMax=0;resizeLast=0;collapsible=1;marginBottom=0;" vertex="1" parent="1">
                    <mxGeometry x="10" y="910" width="400" height="216" as="geometry"/>
                </mxCell>
                <mxCell id="139" value="-idVille: Long" style="text;strokeColor=none;fillColor=none;align=left;verticalAlign=top;spacingLeft=4;spacingRight=4;overflow=hidden;rotatable=0;points=[[0,0.5],[1,0.5]];portConstraint=eastwest;" vertex="1" parent="138">
                    <mxGeometry y="26" width="400" height="26" as="geometry"/>
                </mxCell>
                <mxCell id="140" value="-NomVille: String" style="text;strokeColor=none;fillColor=none;align=left;verticalAlign=top;spacingLeft=4;spacingRight=4;overflow=hidden;rotatable=0;points=[[0,0.5],[1,0.5]];portConstraint=eastwest;" vertex="1" parent="138">
                    <mxGeometry y="52" width="400" height="26" as="geometry"/>
                </mxCell>
                <mxCell id="147" value="" style="line;strokeWidth=1;fillColor=none;align=left;verticalAlign=middle;spacingTop=-1;spacingLeft=3;spacingRight=3;rotatable=0;labelPosition=right;points=[];portConstraint=eastwest;strokeColor=inherit;" vertex="1" parent="138">
                    <mxGeometry y="78" width="400" height="8" as="geometry"/>
                </mxCell>
                <mxCell id="148" value="+AjouterVille (Ville ville) : Ville" style="text;strokeColor=none;fillColor=none;align=left;verticalAlign=top;spacingLeft=4;spacingRight=4;overflow=hidden;rotatable=0;points=[[0,0.5],[1,0.5]];portConstraint=eastwest;" vertex="1" parent="138">
                    <mxGeometry y="86" width="400" height="26" as="geometry"/>
                </mxCell>
                <mxCell id="149" value="+UpdateVille (Long id , Ville ville) : Ville" style="text;strokeColor=none;fillColor=none;align=left;verticalAlign=top;spacingLeft=4;spacingRight=4;overflow=hidden;rotatable=0;points=[[0,0.5],[1,0.5]];portConstraint=eastwest;" vertex="1" parent="138">
                    <mxGeometry y="112" width="400" height="26" as="geometry"/>
                </mxCell>
                <mxCell id="150" value="+getVilleById (Long id) : Ville" style="text;strokeColor=none;fillColor=none;align=left;verticalAlign=top;spacingLeft=4;spacingRight=4;overflow=hidden;rotatable=0;points=[[0,0.5],[1,0.5]];portConstraint=eastwest;" vertex="1" parent="138">
                    <mxGeometry y="138" width="400" height="26" as="geometry"/>
                </mxCell>
                <mxCell id="151" value="+deleteVille (Long id) : void" style="text;strokeColor=none;fillColor=none;align=left;verticalAlign=top;spacingLeft=4;spacingRight=4;overflow=hidden;rotatable=0;points=[[0,0.5],[1,0.5]];portConstraint=eastwest;" vertex="1" parent="138">
                    <mxGeometry y="164" width="400" height="26" as="geometry"/>
                </mxCell>
                <mxCell id="152" value="+getListVille () : List&lt;Ville&gt;" style="text;strokeColor=none;fillColor=none;align=left;verticalAlign=top;spacingLeft=4;spacingRight=4;overflow=hidden;rotatable=0;points=[[0,0.5],[1,0.5]];portConstraint=eastwest;" vertex="1" parent="138">
                    <mxGeometry y="190" width="400" height="26" as="geometry"/>
                </mxCell>
                <mxCell id="153" value="" style="endArrow=block;endFill=1;html=1;edgeStyle=orthogonalEdgeStyle;align=left;verticalAlign=top;exitX=0.311;exitY=1.106;exitDx=0;exitDy=0;exitPerimeter=0;entryX=0.25;entryY=0;entryDx=0;entryDy=0;" edge="1" parent="1" source="46" target="138">
                    <mxGeometry x="-1" relative="1" as="geometry">
                        <mxPoint x="100" y="480" as="sourcePoint"/>
                        <mxPoint x="110" y="870" as="targetPoint"/>
                        <Array as="points">
                            <mxPoint x="100" y="451"/>
                            <mxPoint x="100" y="657"/>
                            <mxPoint x="110" y="657"/>
                        </Array>
                    </mxGeometry>
                </mxCell>
                <mxCell id="154" value="1" style="edgeLabel;resizable=0;html=1;align=left;verticalAlign=bottom;" connectable="0" vertex="1" parent="153">
                    <mxGeometry x="-1" relative="1" as="geometry">
                        <mxPoint x="2" y="16" as="offset"/>
                    </mxGeometry>
                </mxCell>
                <mxCell id="155" value="1,*" style="edgeLabel;html=1;align=center;verticalAlign=middle;resizable=0;points=[];" vertex="1" connectable="0" parent="153">
                    <mxGeometry x="0.8067" y="1" relative="1" as="geometry">
                        <mxPoint x="-1" y="21" as="offset"/>
                    </mxGeometry>
                </mxCell>
                <mxCell id="156" value="&lt;&lt;Interface&gt;&gt;&#10;IVille" style="swimlane;fontStyle=0;childLayout=stackLayout;horizontal=1;startSize=40;fillColor=none;horizontalStack=0;resizeParent=1;resizeParentMax=0;resizeLast=0;collapsible=1;marginBottom=0;" vertex="1" parent="1">
                    <mxGeometry x="600" y="910" width="410" height="170" as="geometry"/>
                </mxCell>
                <mxCell id="162" value="+AjouterVille (Ville ville) : Ville" style="text;strokeColor=none;fillColor=none;align=left;verticalAlign=top;spacingLeft=4;spacingRight=4;overflow=hidden;rotatable=0;points=[[0,0.5],[1,0.5]];portConstraint=eastwest;" vertex="1" parent="156">
                    <mxGeometry y="40" width="410" height="26" as="geometry"/>
                </mxCell>
                <mxCell id="163" value="+UpdateVille (Long id , Ville ville) : Ville" style="text;strokeColor=none;fillColor=none;align=left;verticalAlign=top;spacingLeft=4;spacingRight=4;overflow=hidden;rotatable=0;points=[[0,0.5],[1,0.5]];portConstraint=eastwest;" vertex="1" parent="156">
                    <mxGeometry y="66" width="410" height="26" as="geometry"/>
                </mxCell>
                <mxCell id="164" value="+getVilleById (Long id) : Ville" style="text;strokeColor=none;fillColor=none;align=left;verticalAlign=top;spacingLeft=4;spacingRight=4;overflow=hidden;rotatable=0;points=[[0,0.5],[1,0.5]];portConstraint=eastwest;" vertex="1" parent="156">
                    <mxGeometry y="92" width="410" height="26" as="geometry"/>
                </mxCell>
                <mxCell id="166" value="+getListVille () : List&lt;Ville&gt;" style="text;strokeColor=none;fillColor=none;align=left;verticalAlign=top;spacingLeft=4;spacingRight=4;overflow=hidden;rotatable=0;points=[[0,0.5],[1,0.5]];portConstraint=eastwest;" vertex="1" parent="156">
                    <mxGeometry y="118" width="410" height="26" as="geometry"/>
                </mxCell>
                <mxCell id="165" value="+deleteVille (Long id) : void" style="text;strokeColor=none;fillColor=none;align=left;verticalAlign=top;spacingLeft=4;spacingRight=4;overflow=hidden;rotatable=0;points=[[0,0.5],[1,0.5]];portConstraint=eastwest;" vertex="1" parent="156">
                    <mxGeometry y="144" width="410" height="26" as="geometry"/>
                </mxCell>
                <mxCell id="167" value="" style="endArrow=block;dashed=1;endFill=0;endSize=12;html=1;entryX=0.004;entryY=-0.048;entryDx=0;entryDy=0;exitX=1.009;exitY=1.221;exitDx=0;exitDy=0;exitPerimeter=0;entryPerimeter=0;" edge="1" parent="1" source="140" target="162">
                    <mxGeometry width="160" relative="1" as="geometry">
                        <mxPoint x="530.0000000000001" y="960.0039999999999" as="sourcePoint"/>
                        <mxPoint x="627.6" y="1005.75" as="targetPoint"/>
                    </mxGeometry>
                </mxCell>
                <mxCell id="168" value="" style="endArrow=block;endFill=1;html=1;edgeStyle=orthogonalEdgeStyle;align=left;verticalAlign=top;exitX=0.311;exitY=1.106;exitDx=0;exitDy=0;exitPerimeter=0;" edge="1" parent="1">
                    <mxGeometry x="-1" relative="1" as="geometry">
                        <mxPoint x="171.52999999999975" y="1126.0059999999999" as="sourcePoint"/>
                        <mxPoint x="420" y="1280" as="targetPoint"/>
                        <Array as="points">
                            <mxPoint x="170" y="1126"/>
                            <mxPoint x="170" y="1280"/>
                        </Array>
                    </mxGeometry>
                </mxCell>
                <mxCell id="169" value="1" style="edgeLabel;resizable=0;html=1;align=left;verticalAlign=bottom;" connectable="0" vertex="1" parent="168">
                    <mxGeometry x="-1" relative="1" as="geometry">
                        <mxPoint x="2" y="16" as="offset"/>
                    </mxGeometry>
                </mxCell>
                <mxCell id="170" value="1,*" style="edgeLabel;html=1;align=center;verticalAlign=middle;resizable=0;points=[];" vertex="1" connectable="0" parent="168">
                    <mxGeometry x="0.8067" y="1" relative="1" as="geometry">
                        <mxPoint x="-1" y="21" as="offset"/>
                    </mxGeometry>
                </mxCell>
                <mxCell id="171" value="Dowar" style="swimlane;fontStyle=1;align=center;verticalAlign=top;childLayout=stackLayout;horizontal=1;startSize=26;horizontalStack=0;resizeParent=1;resizeParentMax=0;resizeLast=0;collapsible=1;marginBottom=0;" vertex="1" parent="1">
                    <mxGeometry x="420" y="1170" width="400" height="216" as="geometry"/>
                </mxCell>
                <mxCell id="172" value="-idDowar: Long" style="text;strokeColor=none;fillColor=none;align=left;verticalAlign=top;spacingLeft=4;spacingRight=4;overflow=hidden;rotatable=0;points=[[0,0.5],[1,0.5]];portConstraint=eastwest;" vertex="1" parent="171">
                    <mxGeometry y="26" width="400" height="26" as="geometry"/>
                </mxCell>
                <mxCell id="173" value="-NomDowar : String" style="text;strokeColor=none;fillColor=none;align=left;verticalAlign=top;spacingLeft=4;spacingRight=4;overflow=hidden;rotatable=0;points=[[0,0.5],[1,0.5]];portConstraint=eastwest;" vertex="1" parent="171">
                    <mxGeometry y="52" width="400" height="26" as="geometry"/>
                </mxCell>
                <mxCell id="174" value="" style="line;strokeWidth=1;fillColor=none;align=left;verticalAlign=middle;spacingTop=-1;spacingLeft=3;spacingRight=3;rotatable=0;labelPosition=right;points=[];portConstraint=eastwest;strokeColor=inherit;" vertex="1" parent="171">
                    <mxGeometry y="78" width="400" height="8" as="geometry"/>
                </mxCell>
                <mxCell id="175" value="+AjouterDowar (Dowar dowar) : Dowar" style="text;strokeColor=none;fillColor=none;align=left;verticalAlign=top;spacingLeft=4;spacingRight=4;overflow=hidden;rotatable=0;points=[[0,0.5],[1,0.5]];portConstraint=eastwest;" vertex="1" parent="171">
                    <mxGeometry y="86" width="400" height="26" as="geometry"/>
                </mxCell>
                <mxCell id="176" value="+UpdateDowar (Long id , Dowar dowar) : Dowar" style="text;strokeColor=none;fillColor=none;align=left;verticalAlign=top;spacingLeft=4;spacingRight=4;overflow=hidden;rotatable=0;points=[[0,0.5],[1,0.5]];portConstraint=eastwest;" vertex="1" parent="171">
                    <mxGeometry y="112" width="400" height="26" as="geometry"/>
                </mxCell>
                <mxCell id="177" value="+getDowarById (Long id) : Dowar" style="text;strokeColor=none;fillColor=none;align=left;verticalAlign=top;spacingLeft=4;spacingRight=4;overflow=hidden;rotatable=0;points=[[0,0.5],[1,0.5]];portConstraint=eastwest;" vertex="1" parent="171">
                    <mxGeometry y="138" width="400" height="26" as="geometry"/>
                </mxCell>
                <mxCell id="178" value="+deleteDowar (Long id) : void" style="text;strokeColor=none;fillColor=none;align=left;verticalAlign=top;spacingLeft=4;spacingRight=4;overflow=hidden;rotatable=0;points=[[0,0.5],[1,0.5]];portConstraint=eastwest;" vertex="1" parent="171">
                    <mxGeometry y="164" width="400" height="26" as="geometry"/>
                </mxCell>
                <mxCell id="179" value="+getListDowar () : List&lt;Dowar&gt;" style="text;strokeColor=none;fillColor=none;align=left;verticalAlign=top;spacingLeft=4;spacingRight=4;overflow=hidden;rotatable=0;points=[[0,0.5],[1,0.5]];portConstraint=eastwest;" vertex="1" parent="171">
                    <mxGeometry y="190" width="400" height="26" as="geometry"/>
                </mxCell>
                <mxCell id="180" value="&lt;&lt;Interface&gt;&gt;&#10;IVille" style="swimlane;fontStyle=0;childLayout=stackLayout;horizontal=1;startSize=40;fillColor=none;horizontalStack=0;resizeParent=1;resizeParentMax=0;resizeLast=0;collapsible=1;marginBottom=0;" vertex="1" parent="1">
                    <mxGeometry x="910" y="1100" width="410" height="170" as="geometry"/>
                </mxCell>
                <mxCell id="187" value="+AjouterDowar (Dowar dowar) : Dowar" style="text;strokeColor=none;fillColor=none;align=left;verticalAlign=top;spacingLeft=4;spacingRight=4;overflow=hidden;rotatable=0;points=[[0,0.5],[1,0.5]];portConstraint=eastwest;" vertex="1" parent="180">
                    <mxGeometry y="40" width="410" height="26" as="geometry"/>
                </mxCell>
                <mxCell id="188" value="+UpdateDowar (Long id , Dowar dowar) : Dowar" style="text;strokeColor=none;fillColor=none;align=left;verticalAlign=top;spacingLeft=4;spacingRight=4;overflow=hidden;rotatable=0;points=[[0,0.5],[1,0.5]];portConstraint=eastwest;" vertex="1" parent="180">
                    <mxGeometry y="66" width="410" height="26" as="geometry"/>
                </mxCell>
                <mxCell id="189" value="+getDowarById (Long id) : Dowar" style="text;strokeColor=none;fillColor=none;align=left;verticalAlign=top;spacingLeft=4;spacingRight=4;overflow=hidden;rotatable=0;points=[[0,0.5],[1,0.5]];portConstraint=eastwest;" vertex="1" parent="180">
                    <mxGeometry y="92" width="410" height="26" as="geometry"/>
                </mxCell>
                <mxCell id="191" value="+getListDowar () : List&lt;Dowar&gt;" style="text;strokeColor=none;fillColor=none;align=left;verticalAlign=top;spacingLeft=4;spacingRight=4;overflow=hidden;rotatable=0;points=[[0,0.5],[1,0.5]];portConstraint=eastwest;" vertex="1" parent="180">
                    <mxGeometry y="118" width="410" height="26" as="geometry"/>
                </mxCell>
                <mxCell id="190" value="+deleteDowar (Long id) : void" style="text;strokeColor=none;fillColor=none;align=left;verticalAlign=top;spacingLeft=4;spacingRight=4;overflow=hidden;rotatable=0;points=[[0,0.5],[1,0.5]];portConstraint=eastwest;" vertex="1" parent="180">
                    <mxGeometry y="144" width="410" height="26" as="geometry"/>
                </mxCell>
                <mxCell id="186" value="" style="endArrow=block;dashed=1;endFill=0;endSize=12;html=1;exitX=1.006;exitY=1.029;exitDx=0;exitDy=0;exitPerimeter=0;" edge="1" parent="1" source="173" target="180">
                    <mxGeometry width="160" relative="1" as="geometry">
                        <mxPoint x="760.0000000000001" y="1244.996" as="sourcePoint"/>
                        <mxPoint x="948.0399999999998" y="1200.0020000000004" as="targetPoint"/>
                    </mxGeometry>
                </mxCell>
                <mxCell id="192" value="" style="endArrow=block;endFill=1;html=1;edgeStyle=orthogonalEdgeStyle;align=left;verticalAlign=top;exitX=0.311;exitY=1.106;exitDx=0;exitDy=0;exitPerimeter=0;" edge="1" parent="1">
                    <mxGeometry x="-1" relative="1" as="geometry">
                        <mxPoint x="601.5299999999997" y="1386.0059999999999" as="sourcePoint"/>
                        <mxPoint x="850" y="1540" as="targetPoint"/>
                        <Array as="points">
                            <mxPoint x="600" y="1386"/>
                            <mxPoint x="600" y="1540"/>
                        </Array>
                    </mxGeometry>
                </mxCell>
                <mxCell id="193" value="1" style="edgeLabel;resizable=0;html=1;align=left;verticalAlign=bottom;" connectable="0" vertex="1" parent="192">
                    <mxGeometry x="-1" relative="1" as="geometry">
                        <mxPoint x="2" y="16" as="offset"/>
                    </mxGeometry>
                </mxCell>
                <mxCell id="194" value="1,*" style="edgeLabel;html=1;align=center;verticalAlign=middle;resizable=0;points=[];" vertex="1" connectable="0" parent="192">
                    <mxGeometry x="0.8067" y="1" relative="1" as="geometry">
                        <mxPoint x="-1" y="21" as="offset"/>
                    </mxGeometry>
                </mxCell>
                <mxCell id="211" value="Residant" style="swimlane;fontStyle=1;align=center;verticalAlign=top;childLayout=stackLayout;horizontal=1;startSize=26;horizontalStack=0;resizeParent=1;resizeParentMax=0;resizeLast=0;collapsible=1;marginBottom=0;" vertex="1" parent="1">
                    <mxGeometry x="850" y="1370" width="400" height="320" as="geometry"/>
                </mxCell>
                <mxCell id="212" value="-IdResidant : Long" style="text;strokeColor=none;fillColor=none;align=left;verticalAlign=top;spacingLeft=4;spacingRight=4;overflow=hidden;rotatable=0;points=[[0,0.5],[1,0.5]];portConstraint=eastwest;" vertex="1" parent="211">
                    <mxGeometry y="26" width="400" height="26" as="geometry"/>
                </mxCell>
                <mxCell id="213" value="-NomComplete : String" style="text;strokeColor=none;fillColor=none;align=left;verticalAlign=top;spacingLeft=4;spacingRight=4;overflow=hidden;rotatable=0;points=[[0,0.5],[1,0.5]];portConstraint=eastwest;" vertex="1" parent="211">
                    <mxGeometry y="52" width="400" height="26" as="geometry"/>
                </mxCell>
                <mxCell id="215" value="-dateNaissance : Date" style="text;strokeColor=none;fillColor=none;align=left;verticalAlign=top;spacingLeft=4;spacingRight=4;overflow=hidden;rotatable=0;points=[[0,0.5],[1,0.5]];portConstraint=eastwest;" vertex="1" parent="211">
                    <mxGeometry y="78" width="400" height="26" as="geometry"/>
                </mxCell>
                <mxCell id="216" value="-adress : String" style="text;strokeColor=none;fillColor=none;align=left;verticalAlign=top;spacingLeft=4;spacingRight=4;overflow=hidden;rotatable=0;points=[[0,0.5],[1,0.5]];portConstraint=eastwest;" vertex="1" parent="211">
                    <mxGeometry y="104" width="400" height="26" as="geometry"/>
                </mxCell>
                <mxCell id="217" value="-genre : GenreEnum" style="text;strokeColor=none;fillColor=none;align=left;verticalAlign=top;spacingLeft=4;spacingRight=4;overflow=hidden;rotatable=0;points=[[0,0.5],[1,0.5]];portConstraint=eastwest;" vertex="1" parent="211">
                    <mxGeometry y="130" width="400" height="26" as="geometry"/>
                </mxCell>
                <mxCell id="219" value="-Tele: double" style="text;strokeColor=none;fillColor=none;align=left;verticalAlign=top;spacingLeft=4;spacingRight=4;overflow=hidden;rotatable=0;points=[[0,0.5],[1,0.5]];portConstraint=eastwest;" vertex="1" parent="211">
                    <mxGeometry y="156" width="400" height="26" as="geometry"/>
                </mxCell>
                <mxCell id="220" value="" style="line;strokeWidth=1;fillColor=none;align=left;verticalAlign=middle;spacingTop=-1;spacingLeft=3;spacingRight=3;rotatable=0;labelPosition=right;points=[];portConstraint=eastwest;strokeColor=inherit;" vertex="1" parent="211">
                    <mxGeometry y="182" width="400" height="8" as="geometry"/>
                </mxCell>
                <mxCell id="221" value="+AjouterResidant (Residant residant) : Residant" style="text;strokeColor=none;fillColor=none;align=left;verticalAlign=top;spacingLeft=4;spacingRight=4;overflow=hidden;rotatable=0;points=[[0,0.5],[1,0.5]];portConstraint=eastwest;" vertex="1" parent="211">
                    <mxGeometry y="190" width="400" height="26" as="geometry"/>
                </mxCell>
                <mxCell id="222" value="+UpdateResidant (Long id , Residant residant) : Residant" style="text;strokeColor=none;fillColor=none;align=left;verticalAlign=top;spacingLeft=4;spacingRight=4;overflow=hidden;rotatable=0;points=[[0,0.5],[1,0.5]];portConstraint=eastwest;" vertex="1" parent="211">
                    <mxGeometry y="216" width="400" height="26" as="geometry"/>
                </mxCell>
                <mxCell id="223" value="+getResidantById (Long id) : Residant" style="text;strokeColor=none;fillColor=none;align=left;verticalAlign=top;spacingLeft=4;spacingRight=4;overflow=hidden;rotatable=0;points=[[0,0.5],[1,0.5]];portConstraint=eastwest;" vertex="1" parent="211">
                    <mxGeometry y="242" width="400" height="26" as="geometry"/>
                </mxCell>
                <mxCell id="224" value="+deleteResidant (Long id) : void" style="text;strokeColor=none;fillColor=none;align=left;verticalAlign=top;spacingLeft=4;spacingRight=4;overflow=hidden;rotatable=0;points=[[0,0.5],[1,0.5]];portConstraint=eastwest;" vertex="1" parent="211">
                    <mxGeometry y="268" width="400" height="26" as="geometry"/>
                </mxCell>
                <mxCell id="225" value="+getListResidant () : List&lt;Residant&gt;" style="text;strokeColor=none;fillColor=none;align=left;verticalAlign=top;spacingLeft=4;spacingRight=4;overflow=hidden;rotatable=0;points=[[0,0.5],[1,0.5]];portConstraint=eastwest;" vertex="1" parent="211">
                    <mxGeometry y="294" width="400" height="26" as="geometry"/>
                </mxCell>
                <mxCell id="226" value="&lt;&lt;Interface&gt;&gt;&#10;IResidant" style="swimlane;fontStyle=0;childLayout=stackLayout;horizontal=1;startSize=40;fillColor=none;horizontalStack=0;resizeParent=1;resizeParentMax=0;resizeLast=0;collapsible=1;marginBottom=0;" vertex="1" parent="1">
                    <mxGeometry x="1320" y="1350" width="410" height="170" as="geometry"/>
                </mxCell>
                <mxCell id="232" value="+AjouterResidant (Residant residant) : Residant" style="text;strokeColor=none;fillColor=none;align=left;verticalAlign=top;spacingLeft=4;spacingRight=4;overflow=hidden;rotatable=0;points=[[0,0.5],[1,0.5]];portConstraint=eastwest;" vertex="1" parent="226">
                    <mxGeometry y="40" width="410" height="26" as="geometry"/>
                </mxCell>
                <mxCell id="233" value="+UpdateResidant (Long id , Residant residant) : Residant" style="text;strokeColor=none;fillColor=none;align=left;verticalAlign=top;spacingLeft=4;spacingRight=4;overflow=hidden;rotatable=0;points=[[0,0.5],[1,0.5]];portConstraint=eastwest;" vertex="1" parent="226">
                    <mxGeometry y="66" width="410" height="26" as="geometry"/>
                </mxCell>
                <mxCell id="236" value="+getListResidant () : List&lt;Residant&gt;" style="text;strokeColor=none;fillColor=none;align=left;verticalAlign=top;spacingLeft=4;spacingRight=4;overflow=hidden;rotatable=0;points=[[0,0.5],[1,0.5]];portConstraint=eastwest;" vertex="1" parent="226">
                    <mxGeometry y="92" width="410" height="26" as="geometry"/>
                </mxCell>
                <mxCell id="235" value="+deleteResidant (Long id) : void" style="text;strokeColor=none;fillColor=none;align=left;verticalAlign=top;spacingLeft=4;spacingRight=4;overflow=hidden;rotatable=0;points=[[0,0.5],[1,0.5]];portConstraint=eastwest;" vertex="1" parent="226">
                    <mxGeometry y="118" width="410" height="26" as="geometry"/>
                </mxCell>
                <mxCell id="234" value="+getResidantById (Long id) : Residant" style="text;strokeColor=none;fillColor=none;align=left;verticalAlign=top;spacingLeft=4;spacingRight=4;overflow=hidden;rotatable=0;points=[[0,0.5],[1,0.5]];portConstraint=eastwest;" vertex="1" parent="226">
                    <mxGeometry y="144" width="410" height="26" as="geometry"/>
                </mxCell>
                <mxCell id="237" value="" style="endArrow=block;dashed=1;endFill=0;endSize=12;html=1;exitX=1;exitY=0.5;exitDx=0;exitDy=0;entryX=0;entryY=0.5;entryDx=0;entryDy=0;" edge="1" parent="1" source="217" target="233">
                    <mxGeometry width="160" relative="1" as="geometry">
                        <mxPoint x="1250" y="1484.5440000000003" as="sourcePoint"/>
                        <mxPoint x="1337.6" y="1465.4570198222832" as="targetPoint"/>
                    </mxGeometry>
                </mxCell>
                <mxCell id="238" value="StaistiqueDowar" style="swimlane;fontStyle=1;align=center;verticalAlign=top;childLayout=stackLayout;horizontal=1;startSize=26;horizontalStack=0;resizeParent=1;resizeParentMax=0;resizeLast=0;collapsible=1;marginBottom=0;" vertex="1" parent="1">
                    <mxGeometry x="80" y="1530" width="400" height="86" as="geometry"/>
                </mxCell>
                <mxCell id="244" value="+DowarStaistiqueID" style="text;strokeColor=none;fillColor=none;align=left;verticalAlign=top;spacingLeft=4;spacingRight=4;overflow=hidden;rotatable=0;points=[[0,0.5],[1,0.5]];portConstraint=eastwest;" vertex="1" parent="238">
                    <mxGeometry y="26" width="400" height="26" as="geometry"/>
                </mxCell>
                <mxCell id="245" value="" style="line;strokeWidth=1;fillColor=none;align=left;verticalAlign=middle;spacingTop=-1;spacingLeft=3;spacingRight=3;rotatable=0;labelPosition=right;points=[];portConstraint=eastwest;strokeColor=inherit;" vertex="1" parent="238">
                    <mxGeometry y="52" width="400" height="8" as="geometry"/>
                </mxCell>
                <mxCell id="246" value="+visualiserStatistiqueQuiAPrendreEtPas" style="text;strokeColor=none;fillColor=none;align=left;verticalAlign=top;spacingLeft=4;spacingRight=4;overflow=hidden;rotatable=0;points=[[0,0.5],[1,0.5]];portConstraint=eastwest;" vertex="1" parent="238">
                    <mxGeometry y="60" width="400" height="26" as="geometry"/>
                </mxCell>
                <mxCell id="251" value="" style="endArrow=block;endFill=1;html=1;edgeStyle=orthogonalEdgeStyle;align=left;verticalAlign=top;exitX=0.311;exitY=1.106;exitDx=0;exitDy=0;exitPerimeter=0;entryX=0.571;entryY=-0.007;entryDx=0;entryDy=0;entryPerimeter=0;" edge="1" parent="1" target="238">
                    <mxGeometry x="-1" relative="1" as="geometry">
                        <mxPoint x="481.52999999999975" y="1386.0059999999999" as="sourcePoint"/>
                        <mxPoint x="330" y="1510" as="targetPoint"/>
                        <Array as="points">
                            <mxPoint x="480" y="1386"/>
                            <mxPoint x="480" y="1440"/>
                            <mxPoint x="320" y="1440"/>
                            <mxPoint x="320" y="1490"/>
                            <mxPoint x="308" y="1490"/>
                        </Array>
                    </mxGeometry>
                </mxCell>
                <mxCell id="252" value="1,*" style="edgeLabel;resizable=0;html=1;align=left;verticalAlign=bottom;" connectable="0" vertex="1" parent="251">
                    <mxGeometry x="-1" relative="1" as="geometry">
                        <mxPoint x="2" y="16" as="offset"/>
                    </mxGeometry>
                </mxCell>
                <mxCell id="253" value="1,*" style="edgeLabel;html=1;align=center;verticalAlign=middle;resizable=0;points=[];" vertex="1" connectable="0" parent="251">
                    <mxGeometry x="0.8067" y="1" relative="1" as="geometry">
                        <mxPoint x="-1" y="21" as="offset"/>
                    </mxGeometry>
                </mxCell>
                <mxCell id="254" value="Utilisateur" style="swimlane;fontStyle=1;align=center;verticalAlign=top;childLayout=stackLayout;horizontal=1;startSize=26;horizontalStack=0;resizeParent=1;resizeParentMax=0;resizeLast=0;collapsible=1;marginBottom=0;" vertex="1" parent="1">
                    <mxGeometry x="400" y="1670" width="400" height="372" as="geometry"/>
                </mxCell>
                <mxCell id="255" value="-IdUtilisateur : Long" style="text;strokeColor=none;fillColor=none;align=left;verticalAlign=top;spacingLeft=4;spacingRight=4;overflow=hidden;rotatable=0;points=[[0,0.5],[1,0.5]];portConstraint=eastwest;" vertex="1" parent="254">
                    <mxGeometry y="26" width="400" height="26" as="geometry"/>
                </mxCell>
                <mxCell id="256" value="-NomComplete : String" style="text;strokeColor=none;fillColor=none;align=left;verticalAlign=top;spacingLeft=4;spacingRight=4;overflow=hidden;rotatable=0;points=[[0,0.5],[1,0.5]];portConstraint=eastwest;" vertex="1" parent="254">
                    <mxGeometry y="52" width="400" height="26" as="geometry"/>
                </mxCell>
                <mxCell id="257" value="-dateNaissance : Date" style="text;strokeColor=none;fillColor=none;align=left;verticalAlign=top;spacingLeft=4;spacingRight=4;overflow=hidden;rotatable=0;points=[[0,0.5],[1,0.5]];portConstraint=eastwest;" vertex="1" parent="254">
                    <mxGeometry y="78" width="400" height="26" as="geometry"/>
                </mxCell>
                <mxCell id="258" value="-adress : String" style="text;strokeColor=none;fillColor=none;align=left;verticalAlign=top;spacingLeft=4;spacingRight=4;overflow=hidden;rotatable=0;points=[[0,0.5],[1,0.5]];portConstraint=eastwest;" vertex="1" parent="254">
                    <mxGeometry y="104" width="400" height="26" as="geometry"/>
                </mxCell>
                <mxCell id="259" value="-genre : GenreEnum" style="text;strokeColor=none;fillColor=none;align=left;verticalAlign=top;spacingLeft=4;spacingRight=4;overflow=hidden;rotatable=0;points=[[0,0.5],[1,0.5]];portConstraint=eastwest;" vertex="1" parent="254">
                    <mxGeometry y="130" width="400" height="26" as="geometry"/>
                </mxCell>
                <mxCell id="260" value="-Tele: double" style="text;strokeColor=none;fillColor=none;align=left;verticalAlign=top;spacingLeft=4;spacingRight=4;overflow=hidden;rotatable=0;points=[[0,0.5],[1,0.5]];portConstraint=eastwest;" vertex="1" parent="254">
                    <mxGeometry y="156" width="400" height="26" as="geometry"/>
                </mxCell>
                <mxCell id="271" value="-email: String" style="text;strokeColor=none;fillColor=none;align=left;verticalAlign=top;spacingLeft=4;spacingRight=4;overflow=hidden;rotatable=0;points=[[0,0.5],[1,0.5]];portConstraint=eastwest;" vertex="1" parent="254">
                    <mxGeometry y="182" width="400" height="26" as="geometry"/>
                </mxCell>
                <mxCell id="267" value="-Role: RoleEnum" style="text;strokeColor=none;fillColor=none;align=left;verticalAlign=top;spacingLeft=4;spacingRight=4;overflow=hidden;rotatable=0;points=[[0,0.5],[1,0.5]];portConstraint=eastwest;" vertex="1" parent="254">
                    <mxGeometry y="208" width="400" height="26" as="geometry"/>
                </mxCell>
                <mxCell id="261" value="" style="line;strokeWidth=1;fillColor=none;align=left;verticalAlign=middle;spacingTop=-1;spacingLeft=3;spacingRight=3;rotatable=0;labelPosition=right;points=[];portConstraint=eastwest;strokeColor=inherit;" vertex="1" parent="254">
                    <mxGeometry y="234" width="400" height="8" as="geometry"/>
                </mxCell>
                <mxCell id="262" value="+AjouterUtilisateur (Utilisateur utilisateur) : Utilisateur" style="text;strokeColor=none;fillColor=none;align=left;verticalAlign=top;spacingLeft=4;spacingRight=4;overflow=hidden;rotatable=0;points=[[0,0.5],[1,0.5]];portConstraint=eastwest;" vertex="1" parent="254">
                    <mxGeometry y="242" width="400" height="26" as="geometry"/>
                </mxCell>
                <mxCell id="263" value="+UpdateUtilisateur (Long id , Utilisateurutilisateur) : Utilisateur" style="text;strokeColor=none;fillColor=none;align=left;verticalAlign=top;spacingLeft=4;spacingRight=4;overflow=hidden;rotatable=0;points=[[0,0.5],[1,0.5]];portConstraint=eastwest;" vertex="1" parent="254">
                    <mxGeometry y="268" width="400" height="26" as="geometry"/>
                </mxCell>
                <mxCell id="264" value="+getUtilisateurById (Long id) : Utilisateur" style="text;strokeColor=none;fillColor=none;align=left;verticalAlign=top;spacingLeft=4;spacingRight=4;overflow=hidden;rotatable=0;points=[[0,0.5],[1,0.5]];portConstraint=eastwest;" vertex="1" parent="254">
                    <mxGeometry y="294" width="400" height="26" as="geometry"/>
                </mxCell>
                <mxCell id="265" value="+deleteUtilisateur (Long id) : void" style="text;strokeColor=none;fillColor=none;align=left;verticalAlign=top;spacingLeft=4;spacingRight=4;overflow=hidden;rotatable=0;points=[[0,0.5],[1,0.5]];portConstraint=eastwest;" vertex="1" parent="254">
                    <mxGeometry y="320" width="400" height="26" as="geometry"/>
                </mxCell>
                <mxCell id="266" value="+getListUtilisateur () : List&lt;Utilisateur&gt;" style="text;strokeColor=none;fillColor=none;align=left;verticalAlign=top;spacingLeft=4;spacingRight=4;overflow=hidden;rotatable=0;points=[[0,0.5],[1,0.5]];portConstraint=eastwest;" vertex="1" parent="254">
                    <mxGeometry y="346" width="400" height="26" as="geometry"/>
                </mxCell>
                <mxCell id="268" value="&lt;&lt;ENUM&gt;&gt;&#10;RoleUtilisateur" style="swimlane;fontStyle=0;childLayout=stackLayout;horizontal=1;startSize=40;fillColor=none;horizontalStack=0;resizeParent=1;resizeParentMax=0;resizeLast=0;collapsible=1;marginBottom=0;" vertex="1" parent="1">
                    <mxGeometry x="105" y="1910" width="170" height="90" as="geometry"/>
                </mxCell>
                <mxCell id="269" value="AdminApp,&#10;PresidantAssociation" style="text;strokeColor=none;fillColor=none;align=left;verticalAlign=top;spacingLeft=4;spacingRight=4;overflow=hidden;rotatable=0;points=[[0,0.5],[1,0.5]];portConstraint=eastwest;" vertex="1" parent="268">
                    <mxGeometry y="40" width="170" height="50" as="geometry"/>
                </mxCell>
                <mxCell id="270" value="" style="endArrow=open;endFill=1;endSize=12;html=1;exitX=0;exitY=0.5;exitDx=0;exitDy=0;entryX=1;entryY=0.5;entryDx=0;entryDy=0;" edge="1" parent="1" source="267" target="269">
                    <mxGeometry width="160" relative="1" as="geometry">
                        <mxPoint x="241.24" y="1928.18" as="sourcePoint"/>
                        <mxPoint x="439.9999999999998" y="1850.0000000000002" as="targetPoint"/>
                    </mxGeometry>
                </mxCell>
                <mxCell id="272" value="&lt;&lt;ENUM&gt;&gt;&#10;Genre" style="swimlane;fontStyle=0;childLayout=stackLayout;horizontal=1;startSize=40;fillColor=none;horizontalStack=0;resizeParent=1;resizeParentMax=0;resizeLast=0;collapsible=1;marginBottom=0;" vertex="1" parent="1">
                    <mxGeometry x="1390" y="1560" width="100" height="90" as="geometry"/>
                </mxCell>
                <mxCell id="273" value="Male,&#10;Female" style="text;strokeColor=none;fillColor=none;align=left;verticalAlign=top;spacingLeft=4;spacingRight=4;overflow=hidden;rotatable=0;points=[[0,0.5],[1,0.5]];portConstraint=eastwest;" vertex="1" parent="272">
                    <mxGeometry y="40" width="100" height="50" as="geometry"/>
                </mxCell>
                <mxCell id="278" value="" style="endArrow=open;endFill=1;endSize=12;html=1;exitX=1;exitY=0.5;exitDx=0;exitDy=0;entryX=0;entryY=0.25;entryDx=0;entryDy=0;" edge="1" parent="1" source="221" target="272">
                    <mxGeometry width="160" relative="1" as="geometry">
                        <mxPoint x="1385" y="1680" as="sourcePoint"/>
                        <mxPoint x="1260" y="1816" as="targetPoint"/>
                    </mxGeometry>
                </mxCell>
                <mxCell id="279" value="&lt;&lt;Interface&gt;&gt;&#10;IResidant" style="swimlane;fontStyle=0;childLayout=stackLayout;horizontal=1;startSize=40;fillColor=none;horizontalStack=0;resizeParent=1;resizeParentMax=0;resizeLast=0;collapsible=1;marginBottom=0;" vertex="1" parent="1">
                    <mxGeometry x="960" y="1734" width="410" height="170" as="geometry"/>
                </mxCell>
                <mxCell id="286" value="+AjouterUtilisateur (Utilisateur utilisateur) : Utilisateur" style="text;strokeColor=none;fillColor=none;align=left;verticalAlign=top;spacingLeft=4;spacingRight=4;overflow=hidden;rotatable=0;points=[[0,0.5],[1,0.5]];portConstraint=eastwest;" vertex="1" parent="279">
                    <mxGeometry y="40" width="410" height="26" as="geometry"/>
                </mxCell>
                <mxCell id="290" value="+getListUtilisateur () : List&lt;Utilisateur&gt;" style="text;strokeColor=none;fillColor=none;align=left;verticalAlign=top;spacingLeft=4;spacingRight=4;overflow=hidden;rotatable=0;points=[[0,0.5],[1,0.5]];portConstraint=eastwest;" vertex="1" parent="279">
                    <mxGeometry y="66" width="410" height="26" as="geometry"/>
                </mxCell>
                <mxCell id="289" value="+deleteUtilisateur (Long id) : void" style="text;strokeColor=none;fillColor=none;align=left;verticalAlign=top;spacingLeft=4;spacingRight=4;overflow=hidden;rotatable=0;points=[[0,0.5],[1,0.5]];portConstraint=eastwest;" vertex="1" parent="279">
                    <mxGeometry y="92" width="410" height="26" as="geometry"/>
                </mxCell>
                <mxCell id="288" value="+getUtilisateurById (Long id) : Utilisateur" style="text;strokeColor=none;fillColor=none;align=left;verticalAlign=top;spacingLeft=4;spacingRight=4;overflow=hidden;rotatable=0;points=[[0,0.5],[1,0.5]];portConstraint=eastwest;" vertex="1" parent="279">
                    <mxGeometry y="118" width="410" height="26" as="geometry"/>
                </mxCell>
                <mxCell id="287" value="+UpdateUtilisateur (Long id , Utilisateurutilisateur) : Utilisateur" style="text;strokeColor=none;fillColor=none;align=left;verticalAlign=top;spacingLeft=4;spacingRight=4;overflow=hidden;rotatable=0;points=[[0,0.5],[1,0.5]];portConstraint=eastwest;" vertex="1" parent="279">
                    <mxGeometry y="144" width="410" height="26" as="geometry"/>
                </mxCell>
                <mxCell id="285" value="" style="endArrow=block;dashed=1;endFill=0;endSize=12;html=1;exitX=1.009;exitY=0.106;exitDx=0;exitDy=0;exitPerimeter=0;" edge="1" parent="1" source="267" target="279">
                    <mxGeometry width="160" relative="1" as="geometry">
                        <mxPoint x="890" y="1924.0000000000005" as="sourcePoint"/>
                        <mxPoint x="1040" y="1893.0000000000005" as="targetPoint"/>
                    </mxGeometry>
                </mxCell>
            </root>
        </mxGraphModel>
    </diagram>
</mxfile>